/vscmnt/brussel_pixiu_data/_data_brussel/112/vsc11236/PredSimResults/SUBJ06mtu3D/worker2.mot
version=1
nRows=4
nColumns=50
inDegrees=yes
endheader
                time	         pelvis_tilt	         pelvis_list	     pelvis_rotation	           pelvis_tx	           pelvis_ty	           pelvis_tz	       hip_flexion_r	     hip_adduction_r	      hip_rotation_r	        knee_angle_r	       ankle_angle_r	         mtp_angle_r	       hip_flexion_l	     hip_adduction_l	      hip_rotation_l	        knee_angle_l	       ankle_angle_l	         mtp_angle_l	    lumbar_extension	      lumbar_bending	     lumbar_rotation	 ercspn_r/activation	 intobl_r/activation	 extobl_r/activation	    abd_r/activation	    add_r/activation	hamstrings_r/activation	bifemsh_r/activation	glut_max_r/activation	iliopsoas_r/activation	rect_fem_r/activation	  vasti_r/activation	gastroc_r/activation	 soleus_r/activation	tib_ant_r/activation	 ercspn_l/activation	 intobl_l/activation	 extobl_l/activation	    abd_l/activation	    add_l/activation	hamstrings_l/activation	bifemsh_l/activation	glut_max_l/activation	iliopsoas_l/activation	rect_fem_l/activation	  vasti_l/activation	gastroc_l/activation	 soleus_l/activation	tib_ant_l/activation	
          1.26174032	         -7.18724600	         -1.31844381	          5.42736776	          1.41314916	          0.93016398	         -0.01109180	         30.46902149	         -0.33333799	         -3.96108192	         -2.56870313	          1.53130686	          0.24065547	        -10.30592895	         -0.46881945	          0.48371032	         -9.30442278	          7.15368828	         34.09805326	         -5.16577887	         -0.59825166	          0.26738728	          0.14383763	          0.14495797	          0.01000002	          0.01000000	          0.20691389	          0.17513649	          0.24075574	          0.03487543	          0.16899378	          0.01000009	          0.01000000	          0.02596838	          0.01000000	          0.38743994	          0.10511636	          0.01000000	          0.01000001	          0.05877281	          0.01000062	          0.01176278	          0.14296038	          0.04747191	          0.41950619	          0.02145583	          0.01000008	          0.36193983	          0.31360907	          0.02037160	
          1.27435773	         -7.25530848	         -1.25867432	          5.43809298	          1.43028050	          0.92822081	         -0.01032288	         30.64934484	         -0.20185424	         -3.62788814	         -4.52869589	          1.02218026	          0.20682976	        -10.68896003	         -0.51772424	          0.03633652	        -10.34483744	          6.25757548	         35.96095469	         -4.85549944	         -0.32361416	         -0.08012049	          0.11884560	          0.13345024	          0.01000001	          0.01000001	          0.17096225	          0.16231278	          0.19892407	          0.07438375	          0.13963081	          0.01000003	          0.01000001	          0.02145634	          0.01409114	          0.43082032	          0.11217192	          0.01000000	          0.01000002	          0.04856093	          0.03679989	          0.02000210	          0.11812077	          0.03922360	          0.41221653	          0.01772788	          0.01905429	          0.33451153	          0.29642045	          0.01683200	
          1.28697513	         -7.30769572	         -1.21845919	          5.40929312	          1.44772515	          0.92657875	         -0.00944721	         30.63563014	         -0.08643295	         -3.32630551	         -6.25992665	          0.50278119	          0.19709314	        -10.89370593	         -0.59611127	         -0.43340203	        -11.73967582	          5.20347346	         37.87506454	         -4.53282747	         -0.02278146	         -0.41926076	          0.12900394	          0.11026304	          0.01000002	          0.06704628	          0.15302632	          0.14854104	          0.16436078	          0.09766155	          0.11536971	          0.01000001	          0.01000000	          0.01772827	          0.01164278	          0.53702677	          0.10058073	          0.01000000	          0.01000002	          0.04012338	          0.03040588	          0.01652935	          0.09759709	          0.03240844	          0.41896019	          0.01464771	          0.02145628	          0.30243808	          0.27317988	          0.01390741	
          1.29959253	         -7.34514305	         -1.16919599	          5.34134564	          1.46522972	          0.92539010	         -0.00845814	         30.50720500	          0.03064973	         -3.10538160	         -7.78390639	         -0.16009041	          0.16823420	        -10.83956539	         -0.67605738	         -0.92624396	        -13.59643860	          3.95484528	         39.79800534	         -4.23094616	          0.27162042	         -0.74311878	          0.14041517	          0.09110464	          0.01000001	          0.12134753	          0.22015026	          0.13385908	          0.13580283	          0.13805950	          0.09532402	          0.01000001	          0.01000000	          0.01464795	          0.01000000	          0.58898899	          0.13316576	          0.01000000	          0.01000001	          0.03315187	          0.06579404	          0.02837293	          0.08063943	          0.02677741	          0.41243190	          0.01210284	          0.01772824	          0.24988896	          0.24639124	          0.01149098	
